<svg width="44" height="49" viewBox="0 0 44 49" fill="none" xmlns="http://www.w3.org/2000/svg">
<path d="M0.252823 27.0167C0.468002 26.7483 0.789085 26.5917 1.12594 26.5917H5.40814C6.46489 23.7424 7.8416 20.9508 9.40644 19.897C14.8198 16.2565 29.1783 16.2565 34.5916 19.897C36.1575 20.9519 37.5286 23.747 38.591 26.5917H42.8732C43.2134 26.5917 43.5334 26.7483 43.7463 27.0167C43.9604 27.2839 44.046 27.6374 43.9761 27.9772L43.3419 31.119C43.2337 31.6545 42.7718 32.0368 42.2389 32.0368H40.9704C42.195 33.4811 42.7887 35.2996 42.7966 37.1192C42.8045 39.3673 41.9697 41.3989 40.4431 42.8362C40.4262 42.8511 40.4093 42.8615 40.3936 42.8765V47.2724C40.3936 48.2249 39.6365 49 38.7037 49H34.7538C33.821 49 33.0639 48.2249 33.0639 47.2724V45.5058H10.9364V47.2724C10.9364 48.2249 10.1793 49 9.24647 49H5.29661C4.36604 49 3.60671 48.2249 3.60671 47.2724V42.9629C1.98666 41.4461 1.21269 39.3592 1.20255 37.2758C1.19579 35.394 1.81654 33.5087 3.11326 32.0345H1.76022C1.22508 32.0345 0.763172 31.6522 0.657272 31.1155L0.0218735 27.9749C-0.0434723 27.6374 0.0387688 27.2862 0.252823 27.0167ZM32.7361 22.7819C28.4212 19.8785 15.5791 19.8785 11.2665 22.7819C10.4283 23.344 9.35012 25.6162 8.36209 28.3987H35.6382C34.6524 25.6174 33.5743 23.3463 32.7361 22.7819ZM37.79 37.5523C37.79 35.675 36.3006 34.1548 34.4654 34.1548C32.6279 34.1548 31.1408 35.675 31.1408 37.5523C31.1408 39.4295 32.6279 40.9509 34.4654 40.9509C36.3006 40.9509 37.79 39.4295 37.79 37.5523ZM9.49094 40.9509C11.3262 40.9509 12.8155 39.4295 12.8155 37.5523C12.8155 35.675 11.3262 34.1548 9.49094 34.1548C7.65345 34.1548 6.16634 35.675 6.16634 37.5523C6.16634 39.4295 7.65571 40.9509 9.49094 40.9509Z" fill="white"/>
<mask id="mask0_482_1068" style="mask-type:alpha" maskUnits="userSpaceOnUse" x="6" y="0" width="25" height="28">
<path d="M26.555 14.4818C26.5057 15.0402 26.1983 15.5656 25.6837 15.8602C25.2566 16.1048 24.8163 16.2847 24.3666 16.4064C24.62 17.2806 25.0856 18.5457 25.9143 19.9007C26.7014 21.1883 26.7108 22.7423 25.939 24.1645C24.8021 26.2606 22.2918 27.6691 19.6913 27.6691C17.9053 27.6691 16.3175 26.8283 15.2208 25.3014C13.6532 23.1184 13.3058 19.8968 14.2922 16.6853C15.2064 13.7082 13.9837 12.12 13.1747 11.4373C12.5151 12.0871 11.6205 12.4878 10.6318 12.4878C8.6059 12.4878 6.96243 10.8082 6.96243 8.73616C6.96243 6.66411 8.6059 4.98501 10.6318 4.98501C12.6587 4.98501 14.3013 6.66459 14.3013 8.73616C14.3013 9.0279 14.2657 9.31025 14.2042 9.58283C15.732 10.7252 17.4956 13.2966 16.2614 17.3169C15.4831 19.852 15.7219 22.4327 16.8855 24.0525C17.3788 24.74 18.2667 25.5593 19.6918 25.5593C21.5357 25.5593 23.3627 24.5648 24.1342 23.1416C24.4189 22.6166 24.6545 21.8214 24.1637 21.0185C23.0677 19.2249 22.5191 17.5512 22.2589 16.5282C21.6497 16.4344 21.0549 16.2335 20.4828 15.9212C19.9728 15.6428 19.6598 15.1389 19.5909 14.5943C17.1665 12.3538 16.0472 8.31686 15.9828 8.0806C15.852 7.59595 16.0754 7.0984 16.4919 6.87154C16.1571 3.84091 17.2544 2.31345 17.9164 1.69128C17.866 1.40011 17.9799 1.08865 18.2301 0.921722L19.4467 0.108913C19.7645 -0.103252 20.164 0.00382639 20.3381 0.349531L20.9178 1.49477C21.0924 1.84057 20.9385 2.20932 20.5738 2.31933L19.1984 2.7338C18.8496 2.83889 18.4318 2.66855 18.2344 2.35613C17.6863 2.94644 16.8969 4.26069 17.1688 6.76778C17.5426 6.84052 17.863 7.11889 17.9716 7.51913C18.302 8.7317 19.2565 11.2363 20.6737 12.7382C21.1248 12.56 21.6434 12.5688 22.1034 12.8192C22.403 12.9828 22.696 13.0652 22.9967 13.0716H23.0587C23.3755 13.0647 23.6849 12.9734 24.0017 12.7922C24.4504 12.5349 24.9614 12.5123 25.4121 12.6748C26.7975 11.1668 27.7317 8.7152 28.0567 7.51932C28.1655 7.12012 28.4872 6.84109 28.8597 6.76844C29.1321 4.26135 28.343 2.9471 27.7941 2.3568C27.5965 2.66912 27.1792 2.83955 26.8305 2.73437L25.455 2.3199C25.0909 2.20989 24.9359 1.84056 25.111 1.49533L25.6902 0.350005C25.8648 0.00420578 26.2643 -0.102778 26.5816 0.109387L27.7994 0.922765C28.0495 1.08969 28.1631 1.40106 28.1129 1.69232C28.774 2.31459 29.8722 3.84138 29.5372 6.87249C29.9539 7.09945 30.1766 7.5969 30.0464 8.08212C29.9831 8.31344 28.8975 12.2217 26.555 14.4818ZM10.6318 7.27083C9.84114 7.27083 9.19884 7.92648 9.19884 8.73635C9.19884 9.54565 9.84114 10.2018 10.6318 10.2018C11.4236 10.2018 12.0654 9.54565 12.0654 8.73635C12.0654 7.92639 11.424 7.27083 10.6318 7.27083Z" fill="black"/>
</mask>
<g mask="url(#mask0_482_1068)">
<path d="M51.5151 -2.65564H18.4862L15.0998 6.21222L18.4862 19.5377H51.5151V-2.65564Z" fill="white"/>
</g>
</svg>
